<svg 
xmlns="http://www.w3.org/2000/svg" version="1.1" 
xmlns:xlink="http://www.w3.org/1999/xlink" 
xmlns:svgjs="http://svgjs.com/svgjs" 
width="160.35" height="160">
<svg xmlns="http://www.w3.org/2000/svg" viewBox="0 0 160.35 160">
<path d="M113.69 58.75c1.28-.9 2.56-1.79 3.83-2.71l16.42-12c3.5-2.56 7-5.1 10.5-7.69 1.8-1.33 2.1-1.33 3.31.53.65 1 1.22 2.06 1.85 3.06a1.25 1.25 0 0 1-.42 1.92c-3.69 2.67-7.36 5.37-11 8.06l-18.58 13.6c-2.9 2.11-5.78 4.24-8.71 6.31-.85.61-.79 1 0 1.54 1.1.74 2.19 1.51 3.21 2.35a1.68 1.68 0 0 0 2.37.08c3.27-2.42 6.58-4.79 9.88-7.18l20.63-15c1.62-1.17 3.19-2.39 4.83-3.53 1.2-.84 1.59-.7 2.17.67.48 1.14.85 2.33 1.4 3.44a2.06 2.06 0 0 1-.88 2.92c-2.1 1.48-4.16 3-6.24 4.51q-12.87 9.39-25.76 18.76c-.68.49-.81.84 0 1.36q1.88 1.27 3.67 2.63a1.44 1.44 0 0 0 1.93 0q8.83-6.38 17.7-12.83 5.37-3.9 10.76-7.78c1.07-.76 1.58-.57 1.86.7.36 1.64.61 3.3.91 5a1.81 1.81 0 0 1-.93 1.9l-12.55 9.16c-3.82 2.79-7.65 5.59-11.48 8.36-.7.51-.9.94-.08 1.51q1.86 1.24 3.71 2.6a1.41 1.41 0 0 0 1.91-.07q9.31-6.82 18.68-13.59c1-.75 1.38-.53 1.64.72.44 2.13-.19 4.23-.06 6.34 0 .65-.46 1-.94 1.36-4.17 3.06-8.34 6.14-12.52 9.19-1.58 1.16-1.6 1.24 0 2.37 1 .7 2 1.38 2.9 2.12a1.59 1.59 0 0 0 2.16 0c1.77-1.33 3.56-2.63 5.36-3.92.42-.3.89-.75 1.44-.41s.2.89.11 1.33a77.92 77.92 0 0 1-4.14 13.71c-.41 1.06-1 1.07-1.83.47l-17.82-13q-6.33-4.6-12.69-9.2c-4.55-3.29-9.13-6.55-13.66-9.88-.91-.66-1.34-.63-1.65.5-.38 1.36-.86 2.7-1.28 4a1.61 1.61 0 0 0 .68 2q7.8 5.63 15.59 11.29c6.37 4.63 12.73 9.29 19.1 13.92 2.79 2 5.61 4 8.42 6 1.45 1 1.56 1.38.73 3-.59 1.09-1.25 2.14-1.88 3.21s-1.27 1.08-2.19.41q-7.19-5.26-14.39-10.47T117.31 102q-6.6-4.8-13.19-9.62c-1.17-.86-1.27-.88-1.78.53-.4 1.08-.65 2.22-1.12 3.26-.62 1.4-.16 2.22 1 3.06 5.38 3.82 10.7 7.7 16 11.58q12 8.68 24 17.39c.93.68 1 1.36.27 2.2-.91 1-1.83 2-2.72 3.09a1.48 1.48 0 0 1-2.31.21q-6.81-5-13.64-9.91l-22.44-16.29c-.72-.52-1.41-1.06-2.14-1.57s-1.07-.3-1.31.44c-.47 1.47-1 2.94-1.44 4.42a1.4 1.4 0 0 0 .66 1.7q7.48 5.42 14.94 10.84l20.61 15c1.05.77 1.07 1.26.11 2.11s-2.24 1.87-3.37 2.8a1.66 1.66 0 0 1-2.29 0q-13.55-9.92-27.12-19.8c-1.72-1.26-3.47-2.46-5.18-3.72-.66-.49-1.08-.54-1.35.34-.48 1.51-1 3-1.47 4.54a1.42 1.42 0 0 0 .68 1.71l15.48 11.22c4.26 3.09 8.54 6.17 12.79 9.27 1.17.85 1.15 1.4-.13 2.17s-2.7 1.51-4.06 2.26a2 2 0 0 1-2.32-.2q-11.84-8.67-23.72-17.28c-1.35-1-1.41-.95-1.88.61-.36 1.23-.77 2.45-1.24 3.64a1.62 1.62 0 0 0 .67 2.16c3.46 2.46 6.89 5 10.32 7.48q4.14 3 8.25 6c.39.28.91.55.83 1.11s-.65.66-1.1.84l-.26.07c-8.1 2.63-5 2.45-13-3-2.49-1.69-4.88-3.51-7.29-5.33-.94-.71-1.34-.46-1.63.59-.36 1.33-.81 2.62-1.26 3.92a1.53 1.53 0 0 0 .67 2c1.86 1.27 3.66 2.64 5.47 4 .38.28 1 .53.81 1.1s-.75.57-1.22.64a34 34 0 0 1-5.43.34h-8.24c-1.87 0-2.13-.37-1.56-2.15q3.48-10.74 7-21.47 4.71-14.45 9.4-28.9 5.72-17.68 11.5-35.4 6.26-19.27 12.44-38.54 3.34-10.23 6.7-20.46c.5-1.52.94-1.65 2.3-.77a68.28 68.28 0 0 1 8.54 6.29c1.16 1.05 1.11 1.32-.12 2.22-2.11 1.54-4.21 3.1-6.35 4.59a3.71 3.71 0 0 0-1.48 2l-2.51 7.85c-.09.28-.34.62 0 .86s.66-.09.92-.28l9.66-7c1.72-1.25 3.46-2.47 5.17-3.72.68-.5 1.26-.56 1.84.14.91 1.08 1.8 2.18 2.78 3.2s.73 1.63-.28 2.36c-3.2 2.3-6.36 4.65-9.54 7-4.57 3.34-9.13 6.7-13.73 10a4 4 0 0 0-1.51 2.24c-.94 2.89-1.92 5.77-2.88 8.65z" fill="#226893"></path>
<path d="M8.1 91.63c0-.92-.65-1.32-1.25-1.76Q4 87.79 1.16 85.72a1.66 1.66 0 0 1-.88-1.26c0-2.24-.58-4.48-.07-6.73.26-1.16.88-.93 1.54-.46C4.12 79 6.5 80.66 8.83 82.43c1.85 1.41 1.94 1.41 2.59-.83.32-1.11.67-2.21 1-3.3a1.44 1.44 0 0 0-.63-1.82c-2.77-2-5.39-4.21-8.3-6-2.2-1.28-2.78-2.87-2.18-5.19.24-.94.39-1.91.64-2.85.33-1.25.79-1.43 1.88-.65 3.35 2.39 6.67 4.81 10 7.21 1.29.92 1.33.91 1.86-.6.48-1.33.86-2.7 1.32-4a1.32 1.32 0 0 0-.67-1.67c-3.35-2.4-6.67-4.83-10-7.22-2-1.4-2-1.55-1.14-3.8.32-.83.64-1.65 1-2.47.79-1.88 1.15-2 2.78-.82 2.16 1.56 4.3 3.13 6.44 4.69 1.07.79 2.15 1.57 3.2 2.38.67.53 1.12.62 1.42-.37.41-1.4.91-2.78 1.4-4.15a1.64 1.64 0 0 0-.71-2.15c-3.14-2.22-6.22-4.53-9.35-6.77-.9-.63-1.13-1.26-.5-2.21s1.27-2.13 2-3.16c1-1.49 1.33-1.55 2.74-.52q3.48 2.53 6.94 5.12c1.55 1.15 1.73 1.09 2.27-.72.34-1.15.69-2.3 1.13-3.41a1.45 1.45 0 0 0-.62-2c-1.94-1.33-3.8-2.76-5.7-4.13-1.64-1.11-1.64-1.42-.52-2.83.83-1 1.72-2 2.58-3a1.18 1.18 0 0 1 1.84-.2c1.35 1 2.75 1.94 4.09 2.95.7.52 1.1.41 1.35-.42.46-1.43.94-2.85 1.4-4.29.34-1-.23-1.63-1-2.17-1.76-1.2-1.8-1.42-.19-2.8a75.78 75.78 0 0 1 11.41-7.95c.33-.2.74-.47 1.1-.16s.2.83.07 1.25c-1 3.2-2.06 6.4-3.09 9.6L32.5 40.07 18.24 84Q13.61 98.27 9 112.53c-.17.51-.17 1.28-.88 1.34s-.82-.68-1-1.19a75.23 75.23 0 0 1-5.41-16.51c-.08-.38-.29-.82.11-1.1s.86 0 1.22.23c.74.49 1.45 1 2.17 1.54.43.32 1 .59 1.2-.06a37.81 37.81 0 0 0 1.69-5.15z" fill="#5198c4"></path><path d="M96.76 1.52c1.58.41 3.18.79 4.74 1.26.94.29.78 1.07.55 1.77-1.45 4.45-2.92 8.91-4.37 13.37q-4.38 13.51-8.75 27-4.59 14.15-9.21 28.28Q75 87.59 70.37 102q-5.53 17-11.06 33.94-2.79 8.58-5.52 17.18c-.69 2.17-.92 2.3-3 1.48-1.11-.44-2.19-1-3.3-1.4-.93-.37-1.09-.92-.78-1.88 2.44-7.4 4.82-14.81 7.22-22.21Q57.89 117 61.81 105q4.72-14.51 9.46-29 6.95-21.31 13.87-42.65 4.88-15 9.72-30.05c.3-.97.63-1.85 1.9-1.78zM65.17 158.66a31.4 31.4 0 0 1-4.62-.95c-1.13-.32-1-1.15-.74-2q1.17-3.52 2.33-7.06 7.59-23.42 15.2-46.83Q82.8 85 88.29 68.23 94.5 49.1 100.67 30q3.73-11.55 7.51-23.1c.5-1.52.81-1.68 2.31-1.07 1.14.47 2.24 1.06 3.41 1.47 1.39.49 1.35 1.38 1 2.52-1 2.85-1.9 5.71-2.83 8.57Q108.55 29 105.1 39.56c-3.3 10.19-6.55 20.44-9.85 30.57-2.92 9-5.9 18-8.83 27q-4.85 14.89-9.66 29.8T67 157c-.24.76-.38 1.79-1.83 1.66zM88.47 1.64c-.69 2.13-1.48 4.57-2.28 7q-3.41 10.48-6.83 21-3.61 11.1-7.23 22.2c-2.23 6.86-4.42 13.73-6.64 20.59Q58.23 94.74 51 117.07q-5 15.21-9.93 30.42c-.57 1.76-.85 1.88-2.41 1-1.15-.66-2.25-1.42-3.38-2.1a1.59 1.59 0 0 1-.75-2.13q3.48-10.52 6.9-21.06c2.25-6.94 4.47-13.89 6.73-20.84 2.68-8.24 5.4-16.47 8.08-24.72C58.13 71.82 60 66 61.88 60.2q3.58-11 7.19-22.08 3.83-11.8 7.64-23.62c1.43-4.42 2.87-8.83 4.29-13.26A1.43 1.43 0 0 1 82.4.05a24.74 24.74 0 0 1 5.16.17c.63.12 1.13.31.91 1.42zM23.08 135c.15-.49.4-1.34.67-2.18q7-21.64 14.1-43.28 6-18.36 11.92-36.74Q57.36 29.48 65 6.13a27.76 27.76 0 0 0 1-3.29A2.6 2.6 0 0 1 68.57.63c1.31-.16 2.63-.29 4-.37 1.55-.1 1.76.17 1.31 1.63-.87 2.83-1.78 5.65-2.69 8.47l-8.77 26.89q-3 9.34-6.09 18.68c-2.63 8.12-5.23 16.25-7.87 24.37-1.82 5.59-3.68 11.17-5.5 16.77q-5.3 16.29-10.55 32.57-1.57 4.86-3.19 9.71c-.56 1.68-.94 1.75-2.25.53l-3.22-3a2 2 0 0 1-.67-1.88zM12.65 122.52c.52-1.67 1.06-3.45 1.64-5.21 3.4-10.44 6.83-20.86 10.22-31.3 3.06-9.38 6.07-18.78 9.12-28.16q5.53-17 11.1-34.08 2.75-8.46 5.44-16.94a2.53 2.53 0 0 1 1.62-1.78c1.75-.62 3.51-1.24 5.29-1.78 1.43-.43 1.83 0 1.37 1.45-1.4 4.43-2.84 8.85-4.27 13.27l-7.92 24.36Q42.81 53 39.35 63.56 34.66 78 30 92.47L19 126.3c-.26.8-.48 1.61-.77 2.4s-.82 1-1.32.36a38.35 38.35 0 0 1-4-5.77 3.57 3.57 0 0 1-.26-.77z" fill="#2a78b4"></path>
</svg>
<style>@media (prefers-color-scheme: light) { :root { filter: none; } }
</style>
</svg>